<svg width="101" height="78" viewBox="0 0 101 78" fill="none" xmlns="http://www.w3.org/2000/svg">
<path d="M95 0C98.3137 0 101 2.68629 101 6V52C101 55.3137 98.3137 58 95 58H6C2.68629 58 0 55.3137 0 52V6C0 2.68629 2.68629 5.03325e-08 6 0H95ZM49.208 12.9277C48.9682 12.9118 48.7365 12.9763 48.5127 13.1201C48.3047 13.2641 48.1526 13.4881 48.0566 13.792L42.5127 31C42.4287 31.2799 42.4176 31.5231 42.4805 31.7295L42.5449 31.9033C42.6289 32.1012 42.7623 32.2561 42.9443 32.3682C43.1523 32.4961 43.3763 32.5596 43.6162 32.5596C43.8722 32.5596 44.1045 32.4878 44.3125 32.3438C44.5203 32.2158 44.6726 32.0001 44.7686 31.6963L50.3125 14.4639C50.4084 14.1442 50.4083 13.8723 50.3125 13.6484C50.2325 13.4244 50.0879 13.2481 49.8799 13.1201C49.6719 12.9922 49.4479 12.9277 49.208 12.9277ZM32.6357 13.8877C32.1399 13.8878 31.7563 14.0165 31.4844 14.2725C31.2284 14.5285 31.0996 14.9203 31.0996 15.4482V24.04C31.0996 25.5598 30.7562 26.7037 30.0684 27.4717C29.3804 28.2237 28.3719 28.5996 27.0439 28.5996C25.716 28.5996 24.7001 28.2237 23.9961 27.4717C23.3082 26.7037 22.9639 25.5599 22.9639 24.04V15.4482C22.9639 14.9203 22.8277 14.5285 22.5557 14.2725C22.2997 14.0165 21.9237 13.8877 21.4277 13.8877C20.9319 13.8878 20.5483 14.0165 20.2764 14.2725C20.0204 14.5285 19.8916 14.9203 19.8916 15.4482V24.0645C19.8916 25.2481 20.0438 26.2878 20.3477 27.1836C20.6517 28.0796 21.1078 28.8324 21.7158 29.4404C22.3238 30.0324 23.0683 30.4802 23.9482 30.7842C24.8442 31.0881 25.8761 31.2402 27.0439 31.2402C28.5959 31.2402 29.9001 30.9762 30.9561 30.4482C32.0119 29.9043 32.804 29.0962 33.332 28.0244C33.876 26.9525 34.1484 25.6323 34.1484 24.0645V15.4482C34.1484 14.9204 34.012 14.5285 33.7402 14.2725C33.4842 14.0165 33.1157 13.8877 32.6357 13.8877ZM64.6514 13.8877C64.1555 13.8878 63.7719 14.0165 63.5 14.2725C63.244 14.5285 63.1152 14.9203 63.1152 15.4482V24.04C63.1152 25.5598 62.7718 26.7037 62.084 27.4717C61.396 28.2237 60.3876 28.5996 59.0596 28.5996C57.7316 28.5996 56.7157 28.2237 56.0117 27.4717C55.3238 26.7037 54.9795 25.5599 54.9795 24.04V15.4482C54.9795 14.9203 54.8433 14.5285 54.5713 14.2725C54.3153 14.0165 53.9394 13.8877 53.4434 13.8877C52.9475 13.8878 52.5639 14.0165 52.292 14.2725C52.036 14.5285 51.9072 14.9203 51.9072 15.4482V24.0645C51.9073 25.2481 52.0594 26.2878 52.3633 27.1836C52.6673 28.0796 53.1234 28.8324 53.7314 29.4404C54.3394 30.0324 55.0839 30.4802 55.9639 30.7842C56.8598 31.0881 57.8917 31.2402 59.0596 31.2402C60.6115 31.2402 61.9157 30.9762 62.9717 30.4482C64.0276 29.9043 64.8197 29.0962 65.3477 28.0244C65.8916 26.9525 66.164 25.6323 66.1641 24.0645V15.4482C66.1641 14.9204 66.0276 14.5285 65.7559 14.2725C65.4999 14.0165 65.1314 13.8877 64.6514 13.8877ZM39.2666 13.8877C38.7709 13.8877 38.3872 14.0241 38.1152 14.2959C37.8593 14.5678 37.7305 14.9598 37.7305 15.4717V29.6084C37.7305 30.1042 37.8593 30.4963 38.1152 30.7842C38.3872 31.0559 38.7709 31.1923 39.2666 31.1924C39.7786 31.1924 40.1629 31.0562 40.4189 30.7842C40.6749 30.4963 40.8027 30.1042 40.8027 29.6084V15.4717C40.8027 14.9598 40.6665 14.5678 40.3945 14.2959C40.1385 14.024 39.7625 13.8877 39.2666 13.8877ZM81.2227 13.8877C80.8868 13.8877 80.5909 13.968 80.335 14.1279C80.095 14.2719 79.8468 14.5201 79.5908 14.8721L75.7852 20.1436L71.959 14.8721C71.7031 14.5202 71.4473 14.272 71.1914 14.1279C70.9514 13.9679 70.6706 13.8877 70.3506 13.8877C69.9667 13.8878 69.6465 13.9997 69.3906 14.2236C69.1346 14.4316 68.991 14.704 68.959 15.04C68.927 15.36 69.039 15.6959 69.2949 16.0479L74.0332 22.3936L69.0312 29.0557C68.7753 29.3917 68.6633 29.7285 68.6953 30.0645C68.7434 30.3842 68.8955 30.656 69.1514 30.8799C69.4073 31.0877 69.7349 31.1924 70.1348 31.1924C70.4548 31.1924 70.743 31.1121 70.999 30.9521C71.255 30.7921 71.5106 30.5356 71.7666 30.1836L75.7754 24.668L79.8066 30.1836C80.0786 30.5356 80.3352 30.7921 80.5752 30.9521C80.8311 31.112 81.1111 31.1924 81.415 31.1924C81.831 31.1924 82.1669 31.0879 82.4229 30.8799C82.6787 30.656 82.8224 30.3842 82.8545 30.0645C82.8865 29.7285 82.7746 29.3917 82.5186 29.0557L77.5391 22.3955L82.2793 16.0479C82.5512 15.68 82.6707 15.3355 82.6387 15.0156C82.6066 14.6799 82.4628 14.4081 82.207 14.2002C81.951 13.9922 81.6227 13.8877 81.2227 13.8877Z" fill="#F05734"/>
<rect x="35" y="63" width="31" height="5" fill="#F05734"/>
<rect x="26" y="73" width="49" height="5" rx="2.5" fill="#F05734"/>
<rect y="44" width="101" height="5" fill="#292929"/>
</svg>
